<?xml version="1.0" standalone="no"?>
<!DOCTYPE svg PUBLIC "-//W3C//DTD SVG 20010904//EN"
 "http://www.w3.org/TR/2001/REC-SVG-20010904/DTD/svg10.dtd">
<svg version="1.0" xmlns="http://www.w3.org/2000/svg"
 width="96.000000pt" height="125.000000pt" viewBox="0 0 96.000000 125.000000"
 preserveAspectRatio="xMidYMid meet">

<g transform="translate(0.000000,125.000000) scale(0.100000,-0.100000)"
fill="#000000" stroke="none">
<path d="M215 1239 c-5 -7 -9 -31 -11 -54 -3 -61 -35 -115 -97 -168 -76 -65
-100 -118 -101 -221 -1 -71 3 -89 31 -148 35 -73 91 -140 163 -193 44 -32 48
-39 53 -87 4 -37 -1 -73 -14 -119 -21 -70 -24 -237 -4 -242 6 -1 12 32 16 78
7 103 34 189 58 180 9 -4 68 -9 131 -12 240 -10 410 74 470 233 25 69 25 130
0 219 -23 78 -20 108 16 174 13 24 24 54 24 67 0 20 -5 24 -27 24 -77 -1 -295
-66 -370 -110 l-32 -18 -36 75 c-46 98 -106 181 -193 267 -49 48 -72 64 -77
55z m152 -224 c25 -33 61 -91 79 -128 l35 -68 -33 -27 c-18 -15 -47 -42 -64
-61 -49 -53 -75 -19 -32 41 28 40 38 128 14 128 -9 0 -19 -12 -22 -27 -4 -16
-14 -38 -22 -51 -14 -21 -16 -22 -24 -7 -6 9 -12 50 -15 91 -6 75 -26 115 -39
79 -13 -33 6 -168 36 -257 l30 -90 -26 -73 c-30 -86 -29 -86 -116 -6 -60 55
-114 145 -124 207 -11 73 10 122 87 194 66 63 108 130 109 175 0 16 7 12 41
-20 22 -22 61 -67 86 -100z m495 -203 c-3 -64 0 -103 12 -144 22 -77 20 -105
-10 -166 -40 -81 -129 -144 -244 -173 -69 -17 -256 -17 -273 0 -16 17 99 125
122 115 34 -14 166 -16 206 -2 35 11 40 17 40 43 0 33 7 32 -100 15 -51 -8
-78 -7 -64 3 126 88 219 189 219 238 0 42 -20 36 -62 -18 -47 -62 -96 -108
-104 -100 -4 4 -2 24 4 46 16 53 15 81 -3 81 -21 0 -37 -44 -40 -110 l-2 -54
-85 -53 c-47 -29 -109 -78 -137 -109 -50 -54 -51 -55 -51 -27 0 41 26 137 51
185 30 58 122 152 190 193 65 40 163 79 264 105 39 10 71 19 71 19 1 1 -1 -39
-4 -87z"/>
</g>
</svg>
